HIERARCHY
ROOT reference
{
  OFFSET -65.3212 -1.93545 -120.338
  CHANNELS 6 Xposition Yposition Zposition Zrotation Xrotation Yrotation
  JOINT Hips
  {
    OFFSET 0 78.7191 0
    CHANNELS 6 Xposition Yposition Zposition Zrotation Xrotation Yrotation
    JOINT Chest
    {
      OFFSET 0 8.7983 -4.7612
      CHANNELS 6 Xposition Yposition Zposition Zrotation Xrotation Yrotation
      JOINT Chest2
      {
        OFFSET 0 8.0291 0.4195
        CHANNELS 6 Xposition Yposition Zposition Zrotation Xrotation Yrotation
        JOINT Chest3
        {
          OFFSET 0 9.9351 -2.2114
          CHANNELS 6 Xposition Yposition Zposition Zrotation Xrotation Yrotation
          JOINT Neck
          {
            OFFSET 0 22.3885 -0.4656
            CHANNELS 6 Xposition Yposition Zposition Zrotation Xrotation Yrotation
            JOINT Head
            {
              OFFSET -0.0001 12.643 3.4389
              CHANNELS 6 Xposition Yposition Zposition Zrotation Xrotation Yrotation
              End Site
              {
                OFFSET 0.0001 17.6655 0.5274
              }
            }
          }
          JOINT LeftCollar
          {
            OFFSET 2.2603 21.606 7.4023
            CHANNELS 6 Xposition Yposition Zposition Zrotation Xrotation Yrotation
            JOINT LeftShoulder
            {
              OFFSET 13.5163 -1.1332 -5.0146
              CHANNELS 6 Xposition Yposition Zposition Zrotation Xrotation Yrotation
              JOINT LeftElbow
              {
                OFFSET -0.0995 -28.05 -0.2431
                CHANNELS 6 Xposition Yposition Zposition Zrotation Xrotation Yrotation
                JOINT LeftWrist
                {
                  OFFSET 0.0679 -23.3996 -0.1402
                  CHANNELS 6 Xposition Yposition Zposition Zrotation Xrotation Yrotation
                  JOINT LeftFinger1
                  {
                    OFFSET 0.7932 -9.069 2.5189
                    CHANNELS 6 Xposition Yposition Zposition Zrotation Xrotation Yrotation
                    JOINT LeftFinger11
                    {
                      OFFSET -0.8272 -3.3923 0.5977
                      CHANNELS 6 Xposition Yposition Zposition Zrotation Xrotation Yrotation
                      JOINT LeftFinger12
                      {
                        OFFSET -0.5649 -2.3158 0.4082
                        CHANNELS 6 Xposition Yposition Zposition Zrotation Xrotation Yrotation
                        End Site
                        {
                          OFFSET -0.4919 -1.6479 0.2673
                        }
                      }
                    }
                  }
                  JOINT LeftFinger2
                  {
                    OFFSET 0.9159 -9.2044 0.2193
                    CHANNELS 6 Xposition Yposition Zposition Zrotation Xrotation Yrotation
                    JOINT LeftFinger21
                    {
                      OFFSET 0.0117 -4.1944 -0.0248
                      CHANNELS 6 Xposition Yposition Zposition Zrotation Xrotation Yrotation
                      JOINT LeftFinger22
                      {
                        OFFSET 0.0071 -2.3249 -0.0142
                        CHANNELS 6 Xposition Yposition Zposition Zrotation Xrotation Yrotation
                        End Site
                        {
                          OFFSET -0.1475 -2.0882 0.0028
                        }
                      }
                    }
                  }
                  JOINT LeftFinger3
                  {
                    OFFSET 0.6113 -8.7231 -2.0637
                    CHANNELS 6 Xposition Yposition Zposition Zrotation Xrotation Yrotation
                    JOINT LeftFinger31
                    {
                      OFFSET -0.1927 -3.8059 -0.2383
                      CHANNELS 6 Xposition Yposition Zposition Zrotation Xrotation Yrotation
                      JOINT LeftFinger32
                      {
                        OFFSET -0.1091 -2.1688 -0.1362
                        CHANNELS 6 Xposition Yposition Zposition Zrotation Xrotation Yrotation
                        End Site
                        {
                          OFFSET -0.2358 -1.9176 -0.0906
                        }
                      }
                    }
                  }
                  JOINT LeftFinger4
                  {
                    OFFSET -0.6151 -8.0947 -3.5641
                    CHANNELS 6 Xposition Yposition Zposition Zrotation Xrotation Yrotation
                    JOINT LeftFinger41
                    {
                      OFFSET -0.4882 -2.341 -0.6462
                      CHANNELS 6 Xposition Yposition Zposition Zrotation Xrotation Yrotation
                      JOINT LeftFinger42
                      {
                        OFFSET -0.3575 -1.7167 -0.4742
                        CHANNELS 6 Xposition Yposition Zposition Zrotation Xrotation Yrotation
                        End Site
                        {
                          OFFSET -0.4187 -1.5237 -0.3496
                        }
                      }
                    }
                  }
                  JOINT LeftFinger0
                  {
                    OFFSET -1.42 -1.8761 1.4223
                    CHANNELS 6 Xposition Yposition Zposition Zrotation Xrotation Yrotation
                    JOINT LeftFinger01
                    {
                      OFFSET -1.1471 -3.4929 2.6334
                      CHANNELS 6 Xposition Yposition Zposition Zrotation Xrotation Yrotation
                      JOINT LeftFinger02
                      {
                        OFFSET -0.823 -2.3 1.6571
                        CHANNELS 6 Xposition Yposition Zposition Zrotation Xrotation Yrotation
                        End Site
                        {
                          OFFSET -0.5822 -1.6914 1.1582
                        }
                      }
                    }
                  }
                }
              }
            }
          }
          JOINT RightCollar
          {
            OFFSET -2.2603 21.606 7.4023
            CHANNELS 6 Xposition Yposition Zposition Zrotation Xrotation Yrotation
            JOINT RightShoulder
            {
              OFFSET -13.5187 -1.1334 -5.0155
              CHANNELS 6 Xposition Yposition Zposition Zrotation Xrotation Yrotation
              JOINT RightElbow
              {
                OFFSET 0.0994 -28.0499 -0.2431
                CHANNELS 6 Xposition Yposition Zposition Zrotation Xrotation Yrotation
                JOINT RightWrist
                {
                  OFFSET -0.0679 -23.3996 -0.1402
                  CHANNELS 6 Xposition Yposition Zposition Zrotation Xrotation Yrotation
                  JOINT RightFinger1
                  {
                    OFFSET -0.7932 -9.0691 2.5189
                    CHANNELS 6 Xposition Yposition Zposition Zrotation Xrotation Yrotation
                    JOINT RightFinger11
                    {
                      OFFSET 0.8272 -3.3923 0.5977
                      CHANNELS 6 Xposition Yposition Zposition Zrotation Xrotation Yrotation
                      JOINT RightFinger12
                      {
                        OFFSET 0.565 -2.3158 0.4082
                        CHANNELS 6 Xposition Yposition Zposition Zrotation Xrotation Yrotation
                        End Site
                        {
                          OFFSET 0.4919 -1.6479 0.2673
                        }
                      }
                    }
                  }
                  JOINT RightFinger2
                  {
                    OFFSET -0.916 -9.2044 0.2193
                    CHANNELS 6 Xposition Yposition Zposition Zrotation Xrotation Yrotation
                    JOINT RightFinger21
                    {
                      OFFSET -0.0117 -4.1944 -0.0248
                      CHANNELS 6 Xposition Yposition Zposition Zrotation Xrotation Yrotation
                      JOINT RightFinger22
                      {
                        OFFSET -0.0071 -2.3249 -0.0142
                        CHANNELS 6 Xposition Yposition Zposition Zrotation Xrotation Yrotation
                        End Site
                        {
                          OFFSET 0.1475 -2.0882 0.0028
                        }
                      }
                    }
                  }
                  JOINT RightFinger3
                  {
                    OFFSET -0.6113 -8.7231 -2.0637
                    CHANNELS 6 Xposition Yposition Zposition Zrotation Xrotation Yrotation
                    JOINT RightFinger31
                    {
                      OFFSET 0.1927 -3.8059 -0.2383
                      CHANNELS 6 Xposition Yposition Zposition Zrotation Xrotation Yrotation
                      JOINT RightFinger32
                      {
                        OFFSET 0.1091 -2.1688 -0.1362
                        CHANNELS 6 Xposition Yposition Zposition Zrotation Xrotation Yrotation
                        End Site
                        {
                          OFFSET 0.2358 -1.9176 -0.0906
                        }
                      }
                    }
                  }
                  JOINT RightFinger4
                  {
                    OFFSET 0.6151 -8.0947 -3.564
                    CHANNELS 6 Xposition Yposition Zposition Zrotation Xrotation Yrotation
                    JOINT RightFinger41
                    {
                      OFFSET 0.4882 -2.341 -0.6462
                      CHANNELS 6 Xposition Yposition Zposition Zrotation Xrotation Yrotation
                      JOINT RightFinger42
                      {
                        OFFSET 0.3574 -1.7166 -0.4742
                        CHANNELS 6 Xposition Yposition Zposition Zrotation Xrotation Yrotation
                        End Site
                        {
                          OFFSET 0.4187 -1.5237 -0.3496
                        }
                      }
                    }
                  }
                  JOINT RightFinger0
                  {
                    OFFSET 1.4199 -1.8761 1.4221
                    CHANNELS 6 Xposition Yposition Zposition Zrotation Xrotation Yrotation
                    JOINT RightFinger01
                    {
                      OFFSET 1.1472 -3.4929 2.6336
                      CHANNELS 6 Xposition Yposition Zposition Zrotation Xrotation Yrotation
                      JOINT RightFinger02
                      {
                        OFFSET 0.8229 -2.3 1.6571
                        CHANNELS 6 Xposition Yposition Zposition Zrotation Xrotation Yrotation
                        End Site
                        {
                          OFFSET 0.5822 -1.6914 1.1582
                        }
                      }
                    }
                  }
                }
              }
            }
          }
        }
      }
    }
    JOINT RightHip
    {
      OFFSET -9.412 3.9771 -0.7758
      CHANNELS 6 Xposition Yposition Zposition Zrotation Xrotation Yrotation
      JOINT RightKnee
      {
        OFFSET -0.7531 -40.938 0
        CHANNELS 6 Xposition Yposition Zposition Zrotation Xrotation Yrotation
        JOINT RightAnkle
        {
          OFFSET 0 -40.1986 0
          CHANNELS 6 Xposition Yposition Zposition Zrotation Xrotation Yrotation
          JOINT RightToe
          {
            OFFSET 0 -4.4182 9.239
            CHANNELS 6 Xposition Yposition Zposition Zrotation Xrotation Yrotation
            End Site
            {
              OFFSET 0 0 6.1981
            }
          }
        }
      }
    }
    JOINT LeftHip
    {
      OFFSET 9.4119 3.9773 -0.7758
      CHANNELS 6 Xposition Yposition Zposition Zrotation Xrotation Yrotation
      JOINT LeftKnee
      {
        OFFSET 0.7532 -40.9383 0
        CHANNELS 6 Xposition Yposition Zposition Zrotation Xrotation Yrotation
        JOINT LeftAnkle
        {
          OFFSET 0 -40.1986 0
          CHANNELS 6 Xposition Yposition Zposition Zrotation Xrotation Yrotation
          JOINT LeftToe
          {
            OFFSET 0 -4.4182 9.239
            CHANNELS 6 Xposition Yposition Zposition Zrotation Xrotation Yrotation
            End Site
            {
              OFFSET 0 0 6.1981
            }
          }
        }
      }
    }
  }
}
MOTION
Frames:	4
Frame Time:	0.0333333
-114.627 -7.90683 318.446 0 0 -0 0 78.7191 0 0.659138 11.3352 -0.570571 0 8.7983 -4.7612 -0.289228 2.76728 0.323329 0 8.0291 0.4195 -0.59515 5.53285 0.661817 0 9.9351 -2.2114 -0.59515 5.53286 0.661817 -1.42109e-014 22.3885 -0.4656 0.00232893 -8.95382 -0.56366 -0.0001 12.643 3.4389 2.69591 -0.66184 -0.865693 2.2603 21.606 7.4023 4.65532 1.4412 1.14859 13.5163 -1.1332 -5.0146 6.67704 -2.13343 10.4788 -0.0995 -28.05 -0.2431 -47.6851 -70.1379 -20.3301 0.0679 -23.3996 -0.1402 9.83589 2.46785 3.57857 0.7932 -9.069 2.5189 2.92022e-005 0.000108567 8.69628e-005 -0.8272 -3.3923 0.5977 -0.00443348 -0.0063018 0.0035717 -0.5649 -2.3158 0.4082 -0.000121102 -2.0043e-006 -3.39945e-006 0.9159 -9.2044 0.2193 5.4793e-005 3.7712e-005 -0.000151036 0.0117 -4.1944 -0.0248 -0.0129354 0.00247466 0.000230044 0.0071 -2.3249 -0.0142 -5.93248e-005 -9.61674e-005 -2.57952e-005 0.6113 -8.7231 -2.0637 2.96826e-005 6.01645e-005 2.129e-005 -0.1927 -3.8059 -0.2383 -0.0161068 0.00308606 0.000886176 -0.1091 -2.1688 -0.1362 3.93144e-005 0.000160235 2.916e-005 -0.6151 -8.0947 -3.5641 0.000170796 -1.63517e-005 -7.48581e-005 -0.4882 -2.341 -0.6462 -0.0126932 0.00310823 0.00278499 -0.3575 -1.7167 -0.4742 9.92309e-005 0.00010216 4.10262e-006 -1.42 -1.8761 1.4223 0.000256502 -3.20559e-007 -0.000481768 -1.1471 -3.4929 2.6334 -0.000260483 1.94302e-005 0.00016621 -0.823 -2.3 1.6571 -7.03185e-005 -1.90567e-005 -2.0343e-005 -2.2603 21.606 7.4023 -2.20502 -3.41257 3.00029 -13.5187 -1.1334 -5.0155 -5.63105 8.92824 -16.3376 0.0994 -28.0499 -0.2431 38.9992 -72.3747 18.9427 -0.0679 -23.3996 -0.1402 -23.5446 -12.1514 5.67768 -0.7932 -9.0691 2.5189 5.32542 1.8136 -0.170214 0.8272 -3.3923 0.5977 5.32389 1.81303 -0.170017 0.565 -2.3158 0.4082 5.32296 1.81298 -0.169954 -0.916 -9.2044 0.2193 5.32252 1.8136 0.0424288 -0.0117 -4.1944 -0.0248 5.32329 1.81407 0.0425623 -0.0071 -2.3249 -0.0142 5.32141 1.81941 0.0487277 -0.6113 -8.7231 -2.0637 5.23669 2.02823 0.20282 0.1927 -3.8059 -0.2383 5.23862 2.02961 0.203052 0.1091 -2.1688 -0.1362 5.23895 2.02954 0.20312 0.6151 -8.0947 -3.564 5.24624 1.97524 0.355824 0.4882 -2.341 -0.6462 5.24889 1.97624 0.355908 0.3574 -1.7166 -0.4742 5.24809 1.9762 0.35599 1.4199 -1.8761 1.4221 10.7197 7.90663 -0.415801 1.1472 -3.4929 2.6336 -1.16976 2.64215 0.857714 0.8229 -2.3 1.6571 -1.16961 2.64192 0.85767 -9.412 3.9771 -0.7758 -1.95118 -40.1316 11.4727 -0.7531 -40.938 -5.68434e-014 108.716 73.6739 -104.229 -1.42109e-014 -40.1986 -1.42109e-014 -16.9623 -19.9485 -5.96288 -2.84217e-014 -4.4182 9.239 0.486408 3.3444 -0.206037 9.4119 3.9773 -0.7758 -8.44493 -36.8202 -0.00496634 0.7532 -40.9383 0 -1.72241 49.803 -0.131603 -1.42109e-014 -40.1986 0 10.2975 -20.5662 -0.80929 1.42109e-014 -4.4182 9.239 -0.162361 -2.28882 0.000789073 
-114.767 -8.8541 320.402 0 0 -0 0 78.7191 0 1.00023 12.4252 2.52512 -1.42109e-014 8.7983 -4.7612 -0.134059 2.82788 -0.702692 -1.42109e-014 8.0291 0.4195 -0.233764 5.6572 -1.40132 1.42109e-014 9.9351 -2.2114 -0.233764 5.65718 -1.40132 0 22.3885 -0.4656 -0.271683 -10.2243 0.145107 -0.0001 12.643 3.4389 2.58802 -0.634854 0.0967663 2.2603 21.606 7.4023 5.10545 1.07961 0.669202 13.5163 -1.1332 -5.0146 6.05697 -5.60941 9.73696 -0.0995 -28.05 -0.2431 -41.2741 -72.2821 -12.8742 0.0679 -23.3996 -0.1402 8.38013 2.40691 4.36947 0.7932 -9.069 2.5189 0.260473 -0.41745 -0.537028 -0.8272 -3.3923 0.5977 -0.00169721 -0.0761524 -0.0258277 -0.5649 -2.3158 0.4082 0.138319 -0.0861126 0.00752264 0.9159 -9.2044 0.2193 1.33916 -0.533201 0.375074 0.0117 -4.1944 -0.0248 -0.0267261 -0.0753225 0.0191754 0.0071 -2.3249 -0.0142 0.740447 -0.462538 0.0758106 0.6113 -8.7231 -2.0637 1.91776 -0.0813252 0.177759 -0.1927 -3.8059 -0.2383 -0.0462447 -0.18054 0.0718964 -0.1091 -2.1688 -0.1362 0.915225 -0.627093 0.126102 -0.6151 -8.0947 -3.5641 2.02703 0.457618 -0.0231342 -0.4882 -2.341 -0.6462 -0.0241818 -0.305786 0.286088 -0.3575 -1.7167 -0.4742 0.775285 -0.526809 0.145637 -1.42 -1.8761 1.4223 0.0917852 -1.01343 -0.69439 -1.1471 -3.4929 2.6334 -0.3113 -0.41325 0.0849805 -0.823 -2.3 1.6571 -0.392123 -0.521096 0.106528 -2.2603 21.606 7.4023 -2.33631 -3.45125 2.82419 -13.5187 -1.1334 -5.0155 -7.13824 10.0947 -17.6147 0.0994 -28.0499 -0.2431 38.4892 -71.8187 18.9154 -0.0679 -23.3996 -0.1402 -23.9067 -12.5907 4.43695 -0.7932 -9.0691 2.5189 4.75307 1.32873 0.391439 0.8272 -3.3923 0.5977 4.86725 1.65832 -0.148869 0.565 -2.3158 0.4082 4.89046 1.66649 -0.149854 -0.916 -9.2044 0.2193 4.0655 1.64182 -0.213221 -0.0117 -4.1944 -0.0248 5.30483 1.8078 0.0427321 -0.0071 -2.3249 -0.0142 4.67829 1.59421 0.0463141 -0.6113 -8.7231 -2.0637 3.53964 2.40334 0.125091 0.1927 -3.8059 -0.2383 4.99017 1.93299 0.19762 0.1091 -2.1688 -0.1362 4.38069 1.69586 0.182547 0.6151 -8.0947 -3.564 3.57282 2.96318 0.46832 0.4882 -2.341 -0.6462 4.60721 1.73283 0.322072 0.3574 -1.7166 -0.4742 4.55817 1.71452 0.319518 1.4199 -1.8761 1.4221 10.3776 7.38841 0.53058 1.1472 -3.4929 2.6336 -1.1109 2.51178 0.813956 0.8229 -2.3 1.6571 -1.0246 2.32027 0.749997 -9.412 3.9771 -0.7758 -3.49968 -44.1967 11.9936 -0.7531 -40.938 0 105.232 73.9896 -101.769 0 -40.1986 0 -18.5203 -24.1107 -5.91494 0 -4.4182 9.239 0.487114 3.3493 -0.206371 9.4119 3.9773 -0.7758 -10.8988 -37.2254 -3.642 0.7532 -40.9383 -5.68434e-014 -1.85697 52.3968 -0.272749 -1.42109e-014 -40.1986 -5.68434e-014 10.6241 -22.982 -0.702532 2.84217e-014 -4.4182 9.239 0.0106493 -3.58295 -0.000924872 
-115.155 -8.91021 322.833 0 0 -0 0 78.7191 0 -0.386586 12.6039 5.35062 0 8.7983 -4.7612 0.448181 2.80774 -1.6675 0 8.0291 0.4195 0.979842 5.60112 -3.363 0 9.9351 -2.2114 0.979844 5.60113 -3.36301 1.42109e-014 22.3885 -0.4656 -0.767257 -11.242 1.27192 -0.0001 12.643 3.4389 2.41105 -0.337918 1.90096 2.2603 21.606 7.4023 6.19966 0.156411 -0.528119 13.5163 -1.1332 -5.0146 4.33682 -7.16811 8.95973 -0.0995 -28.05 -0.2431 -35.9628 -73.6008 -6.03543 0.0679 -23.3996 -0.1402 4.60616 1.73851 6.1251 0.7932 -9.06901 2.5189 0.916572 -1.4711 -1.89131 -0.8272 -3.3923 0.5977 -0.0151461 -0.26704 -0.0936595 -0.5649 -2.3158 0.4082 0.488256 -0.303587 0.0274866 0.9159 -9.20441 0.2193 4.72393 -1.86474 1.41556 0.0117 -4.1944 -0.0248 -0.0618405 -0.272091 0.0656582 0.0071 -2.3249 -0.0142 2.61424 -1.62598 0.294003 0.6113 -8.72311 -2.0637 6.77862 -0.273536 0.773763 -0.1927 -3.8059 -0.2383 -0.121668 -0.64672 0.244826 -0.1091 -2.1688 -0.1362 3.23417 -2.20172 0.489169 -0.6151 -8.09471 -3.5641 7.19453 1.59947 0.0242191 -0.4882 -2.341 -0.6462 -0.0491798 -1.10329 0.982281 -0.3575 -1.7167 -0.4742 2.7129 -1.81825 0.498437 -1.42 -1.8761 1.4223 0.300402 -3.58382 -2.41262 -1.1471 -3.4929 2.6334 -0.864463 -0.710297 0.19406 -0.823 -2.3 1.6571 -1.37871 -1.84079 0.359862 -2.2603 21.606 7.4023 -2.6596 -3.54202 2.37247 -13.5187 -1.1334 -5.0155 -9.17722 12.7023 -19.5033 0.0994 -28.0499 -0.2431 40.2919 -69.6073 22.1272 -0.0679 -23.3996 -0.1402 -24.8712 -13.7061 1.41658 -0.7932 -9.0691 2.5189 3.31111 0.105147 1.80182 0.8272 -3.3923 0.5977 3.71391 1.2668 -0.100837 0.565 -2.3158 0.4082 3.79713 1.29536 -0.104027 -0.916 -9.2044 0.2193 0.892958 1.20734 -0.905835 -0.0117 -4.1944 -0.0248 5.24954 1.78894 0.0431374 -0.0071 -2.3249 -0.0142 3.04961 1.0389 0.044954 -0.6113 -8.7231 -2.0637 -0.77151 3.33958 -0.133663 0.1927 -3.8059 -0.2383 4.36361 1.68942 0.182065 0.1091 -2.1688 -0.1362 2.21391 0.855167 0.108439 0.6151 -8.0947 -3.564 -0.732939 5.4273 0.734463 0.4882 -2.341 -0.6462 2.98595 1.11983 0.224544 0.3574 -1.7166 -0.4742 2.81539 1.05579 0.213408 1.4199 -1.8761 1.4221 9.54232 6.04895 2.89549 1.1472 -3.4929 2.6336 -0.953942 2.16284 0.697593 0.8229 -2.3 1.6571 -0.660708 1.5057 0.481428 -9.412 3.9771 -0.7758 -2.87764 -47.8693 11.5628 -0.7531 -40.938 -2.84217e-014 94.7734 74.6466 -92.5034 -2.84217e-014 -40.1986 0 -19.9379 -29.0948 -7.52368 0 -4.4182 9.239 0.730129 4.98446 -0.317816 9.4119 3.9773 -0.7758 -10.5229 -35.4633 -5.68932 0.7532 -40.9383 -5.68434e-014 -1.74301 52.8978 -0.242459 0 -40.1986 0 10.9513 -25.1126 -1.15619 0 -4.4182 9.239 0.128822 -4.46572 0.000110303 
-115.551 -7.26039 325.855 0 0 -0 0 78.7191 0 -3.17335 13.1429 8.04524 0 8.7983 -4.7612 1.26479 2.66453 -2.49135 2.84217e-014 8.0291 0.4195 2.64868 5.2708 -5.04906 0 9.9351 -2.2114 2.64868 5.27081 -5.04907 1.42109e-014 22.3885 -0.4656 -1.0758 -11.6905 1.86159 -0.0001 12.643 3.4389 2.11158 -0.678902 3.77477 2.2603 21.606 7.4023 7.54968 -1.07833 -2.07797 13.5163 -1.1332 -5.0146 2.99519 -7.1861 8.66001 -0.0995 -28.05 -0.2431 -33.4681 -74.2447 -1.78382 0.0679 -23.3996 -0.1402 -0.575517 -0.298398 7.84695 0.7932 -9.069 2.5189 1.81396 -2.91481 -3.74507 -0.8272 -3.3923 0.5977 -0.0340823 -0.528207 -0.189262 -0.5649 -2.3158 0.4082 0.988072 -0.613939 0.0582964 0.9159 -9.2044 0.2193 9.38267 -3.64495 3.05826 0.0117 -4.1944 -0.0248 -0.109616 -0.542915 0.126469 0.0071 -2.3249 -0.0142 5.19549 -3.20963 0.655492 0.6113 -8.7231 -2.0637 13.4811 -0.472881 1.93069 -0.1927 -3.8059 -0.2383 -0.222713 -1.29211 0.466977 -0.1091 -2.1688 -0.1362 6.43821 -4.33564 1.09162 -0.6151 -8.0947 -3.5641 14.3765 3.16656 0.331947 -0.4882 -2.341 -0.6462 -0.0748947 -2.2365 1.89208 -0.3575 -1.7167 -0.4742 5.39775 -3.5793 1.06899 -1.42 -1.8761 1.4223 0.536963 -7.13469 -4.69193 -1.1471 -3.4929 2.6334 -1.44677 -0.540492 0.254668 -0.823 -2.3 1.6571 -2.72551 -3.65933 0.671012 -2.2603 21.606 7.4023 -3.08844 -3.65291 1.73932 -13.5187 -1.1334 -5.0155 -11.1352 15.3148 -21.3877 0.0994 -28.0499 -0.2431 41.4347 -66.8417 25.0784 -0.0679 -23.3996 -0.1402 -26.2936 -15.2466 -2.52222 -0.7932 -9.0691 2.5189 1.33815 -1.57152 3.71878 0.8272 -3.3923 0.5977 2.13133 0.727869 -0.04782 0.565 -2.3158 0.4082 2.29682 0.784567 -0.05265 -0.916 -9.2044 0.2193 -3.45605 0.615463 -1.96602 -0.0117 -4.1944 -0.0248 5.19432 1.77014 0.0435356 -0.0071 -2.3249 -0.0142 0.813886 0.277024 0.0173625 -0.6113 -8.7231 -2.0637 -6.7348 4.61259 -0.635118 0.1927 -3.8059 -0.2383 3.50355 1.35537 0.156336 0.1091 -2.1688 -0.1362 -0.761838 -0.293006 -0.0449494 0.6151 -8.0947 -3.564 -6.81721 8.74301 1.06481 0.4882 -2.341 -0.6462 0.759147 0.283367 0.0624992 0.3574 -1.7166 -0.4742 0.422092 0.152846 0.0259003 1.4199 -1.8761 1.4221 8.46112 4.14128 6.09082 1.1472 -3.4929 2.6336 -0.723686 1.64734 0.527681 0.8229 -2.3 1.6571 -0.167451 0.384688 0.121228 -9.412 3.9771 -0.7758 -1.1665 -57.259 10.9163 -0.7531 -40.938 0 102.317 74.379 -101.242 2.84217e-014 -40.1986 0 -18.1431 -33.9577 -8.35741 0 -4.4182 9.239 1.10632 7.46346 -0.500945 9.4119 3.9773 -0.7758 -8.49081 -31.7542 -8.31735 0.7532 -40.9383 0 -1.59326 48.7596 -0.0755119 1.42109e-014 -40.1986 0 10.3152 -24.528 -1.37316 1.42109e-014 -4.4182 9.239 0.269814 -5.55536 0.00498313 
